<svg xmlns="http://www.w3.org/2000/svg" width="47" height="47">
    <path fillRule="evenodd" fill="#077997" d="M23.983 46.978C11.299 46.978.979 36.659.979 23.975.979 11.289 11.299.97 23.983.97c12.685 0 23.005 10.319 23.005 23.005 0 12.684-10.32 23.003-23.005 23.003zm0-45.092c-12.179 0-22.088 9.909-22.088 22.089 0 12.179 9.909 22.655 22.088 22.655 12.18 0 22.737-10.476 22.737-22.655 0-12.18-10.557-22.089-22.737-22.089zm8.003 31.374c-2.691.198-5.412.415-8.107.415-2.695 0-5.415-.217-8.085-.385-1.031-.454-1.904-1.431-2.011-2.49-.079-.3-.156-1.501-.227-2.256-.103-1.031 1.434-2.227 1.764-2.717 1.447-.727 3.276-1.397 5.18-1.711l-.03-.206c-.512-.435-.845-.993-.894-1.526-.018-.176-.039-.074-.059-.532.383-.183-.738-.586-.789-1.077l-.222-2.129a1.292 1.292 0 0 1 .282-.959.635.635 0 0 1 .312-.218l-.159-.641c-.068-.717-.229-2.398 1.249-3.563.705-.861 2.124-1.372 3.69-1.372 1.568 0 2.987.511 3.895 1.4 1.705 1.136 1.114 2.814 1.046 3.53l-.015.177c-.019.162-.036.318-.055.469a1.307 1.307 0 0 1 .502 1.18l.077 2.126c-.343.489-.656.896-1.088 1.079l-.066.555c-.039.506-.369 1.063-.884 1.501l-.029.207c1.901.313 3.723.882 5.429 1.695.962.501 1.611 1.696 1.51 2.736l-.222 2.251c-.112 1.063-.987 2.039-1.994 2.461zm-.111-5.809c-1.772-.844-3.719-.971-5.758-1.647a.917.917 0 0 1-.618-.352c-.15-.195-.215.448-.18-.687l.214-1.495c.039.43.189-.495.413-.638.265-.17.392-.365.41-.427l.165-1.399c.042-.353.284-.649.622-.346.042-.15.084-.25.127-.33l.106-1.134a.915.915 0 0 1-.146-.083c-.282-.192-.433-.526-.392-.433l.011-.523c.045-.374.091-.745.132-1.12l.016-.187c.653-.712.903-1.514-.472-2.019-.591-.101-1.569-.906-2.645-.906-1.075 0-2.05.805-2.609.877-.599.536-.574 1.339-.506 2.052l.157 1.886c.039-.146-.115.187-.398.378-.045.03-.092.056-.14.078l.106 1.134c.043.08.086.18.129.33.338-.303.579-.005.621.348.055.466.108.927.16 1.393.015.059.147.258.416.429.624.145.38.48.417.648l.207 1.485c.035.937-.029.493-.179.689a.922.922 0 0 1-.618.352c-2.041.676-3.989.804-5.792 1.662-.268.14-.498 1.464-.47.901.069.754.146 1.499.224 2.245.028.273.306.576.504.614 5.098 1.204 10.417 1.244 15.564-.005.176-.033.456-.329.485-.609l.221-2.241c.027.579-.206-.765-.504-.92z"/>
</svg>
