<svg xmlns="http://www.w3.org/2000/svg" width="56" height="56">
    <path fillRule="evenodd" fill="#077997" d="M27.731 55.388C12.525 55.388.154 43.11.154 27.797.154 12.583 12.525.206 27.731.206c15.207 0 27.578 12.377 27.578 27.591 0 15.313-12.371 27.591-27.578 27.591zm0-54.083c-14.6 0-26.479 11.884-26.479 26.492s11.879 26.492 26.479 26.492c14.601 0 26.48-11.884 26.48-26.492S42.332 1.305 27.731 1.305zm11.984 34.677c-.134 1.275-1.184 2.446-2.39 2.671-2.335.518-6.487.779-9.719.779-3.231 0-6.492-.261-9.691-.775-1.237-.231-2.283-1.404-2.412-2.674-.094-.143-.187-1.8-.271-2.706-.125-.877.651-2.671 1.768-3.087 2.81-.91 4.273-1.846 6.556-2.223l-.036-.248c-.615-.521-1.014-1.19-1.072-1.83-.022-.21-.047-.423-.071-.637-.512.068-.885-.704-.946-1.292l-.266-2.553a1.558 1.558 0 0 1 .337-1.151c.079-.098.169.444.267-.261l-.082-.769c-.082-.861-.275-2.876 1.292-4.274 1.311-1.032 2.75-1.645 4.629-1.645 1.879 0 3.58.613 4.669 1.679 1.526 1.363 1.335 3.375 1.253 4.235l-.018.211c-.021.194-.043.381-.065.562.096.686.184.16.261.256.265.327 1.222.739.772 1.16l-.696 2.55c-.054.587-.43 1.38-.948 1.294l-.079.665c-.047.607-.442 1.276-1.059 1.8l-.036.249c2.28.376 4.464 1.292 6.509 2.132 1.153.502 1.931 2.25 1.81 3.182l-.266 2.7zm-2.524-4.016c-1.511-1.011-4.457-1.682-6.902-1.975a1.092 1.092 0 0 1-.74-.422c-.18-.234-.258-.189-.217-.824l.258-1.793c.046-.315.226-.594 1.25-.765-.439-.204-.285-.437-.264-.513l.197-1.677c.051-.423.341-.778.746-.147.05-.18.1-.3.152-.39l.127-1.635a1.008 1.008 0 0 1-.175-.099c-.338-.23-.518.234-.47-1.037l.014-.109c.054-.449.108-.894.158-1.343l.018-.117c.082-.962.112-1.924-.565-2.529-.088-.693-1.881-1.087-3.17-1.087s-2.459.393-3.129 1.052c-.717.642-.687 1.606-.606 2.614l.737 1.527c-.502.407-.686.806-1.026 1.035-.054.036-.11.067-.168.093l.127 1.635c.053.09.104.21.156.39.404-.631.693-.274.744.149.065.559.129 1.112.19 1.671.02.071.177.309.5.514.274.174.456.457.5.778l.248 1.781c.042.617-.035.591-.215.826s-.447.387-.741.422a22.307 22.307 0 0 0-6.943 1.993c-.321.169-.597.753-.564 1.666.084.32.176 1.213.269 2.108.033 1.102.863.69.604.735a59.22 59.22 0 0 0 18.659-.005c.211-.04.546.442.581-.73l.265-2.058c.032-.961-.247-1.547-.605-1.734z"/>
</svg>
