<?xml version="1.0" encoding="utf-8"?>
<!-- Generator: Adobe Illustrator 26.0.3, SVG Export Plug-In . SVG Version: 6.00 Build 0)  -->
<svg version="1.1" id="Layer_1" xmlns="http://www.w3.org/2000/svg" xmlns:xlink="http://www.w3.org/1999/xlink" x="0px" y="0px"
	 viewBox="0 0 1440 948" style="enable-background:new 0 0 1440 948;" xml:space="preserve">
<style type="text/css">
	.st0{fill:#F3F8FF;}
	.st1{fill:#ECF7FD;stroke:#B7E3F2;}
</style>
<rect class="st0" width="1440" height="948"/>
<path class="st1" d="M717.1,0.2c-32.5,88.5-115.6,157.8-209.1,170c-42.8,5.6-88.5,0.9-126.9,20.5c-43.7,22.4-66.8,70.5-100,106.7
	c-69,75.4-191.1,95.5-280.7,46.2V1.2"/>
<path class="st1" d="M1,948.4l-0.4-165c14.4-2.6,26.4-6.6,39.4-13.6c40.4-22,60.9-67.5,91.2-102.1c62.9-72.1,176.7-93.7,261.7-49.7
	c85,44,132.9,149.5,110.2,242.4c-7.4,30.2-21.3,58.9-32.3,88.1"/>
<path class="st1" d="M903.9,947.8c3.4-39.4,16.5-77.5,6.4-115.8c-11.5-43.6-50.1-73.7-76-110.5c-54-76.6-48.2-190,13.5-260.6
	c61.6-70.6,173.1-91.7,256.3-48.5c48.8,25.3,88,69.7,141.2,83.6c42,10.9,86.1,1,129.3-3.8c21.6-2.4,44.4-3.1,65.8,0.5v453.8"/>
</svg>
