<?xml version="1.0" encoding="utf-8"?>
<!-- Generator: Adobe Illustrator 26.0.3, SVG Export Plug-In . SVG Version: 6.00 Build 0)  -->
<svg version="1.1" id="Layer_1" xmlns="http://www.w3.org/2000/svg" xmlns:xlink="http://www.w3.org/1999/xlink" x="0px" y="0px"
	 viewBox="0 0 1170 3383.7" style="enable-background:new 0 0 1170 3383.7;" xml:space="preserve">
<style type="text/css">
	.st0{fill:#F3F8FF;}
	.st1{fill:#EDF8FD;stroke:#B6E4F3;stroke-width:2;}
</style>
<rect y="3.2" class="st0" width="1170" height="3379.7"/>
<path class="st1" d="M994.5,4.4c-80.8,60.4-175.7,101.3-275.6,114.3c-100.1,13-207,2-296.8,48c-102.3,52.4-156.3,164.8-233.9,249.6
	C136.7,472.5,72.6,515.5,2.5,544.4V3.2L994.5,4.4z"/>
<path class="st1" d="M1170.8,2657.8c-182.8-116.5-287-337-268.4-553c8.5-98.8,41.5-199.2,16.1-295.1
	c-28.9-109.2-125.5-184.7-190.6-277c-135.4-192.1-120.7-476.1,33.8-653.2c101.7-116.5,257.5-179.2,411.5-177.7"/>
<path class="st1" d="M-0.6,2127.8c94-33.6,201.7-30.4,290.5,15.6c142.2,73.7,222.4,250,184.4,405.5c-22.2,91.2-80,174.2-81.4,268
	c-1.1,74.1,33.3,143.3,58.7,212.9c25.4,69.6,41.4,150.3,5.9,215.3c-42.9,78.6-142.6,103.6-231.6,113.3
	c-51.4,5.6-175.6,22-224.3,23.7"/>
</svg>
