<svg xmlns="http://www.w3.org/2000/svg" width="27" height="23">
    <path fillRule="evenodd" fill="#077997" d="M23.633 19.753c.707.349.874.613 1.807.784.033.137.319 1.253.308.993-.013.45-.321.838-.756.952-.672.175-1.34.261-1.692.261-1.607 0-2.839-.35-3.867-1.028a3.11 3.11 0 0 1-.188.036c-3.698.676-7.292-.881-8.85-3.271-1.41 1.45-3.197 1.206-5.196 1.206-.251 0-.506-.009-.762-.027a1.012 1.012 0 0 1-.92-.817c-.087-.448.137-.9 1.123-1.102.139-.352.732-.816 1.198-1.384C2.817 14.833.924 12.124.924 9.199c0-4.648 4.667-8.43 10.404-8.43 5.07 0 9.298 2.956 10.213 6.852.183-.033.374-.035 1.449.042 1.507.978 3.158 2.957 3.526 5.292.387 2.478-.728 5.044-2.883 6.798zM11.328 2.794c-4.622 0-8.382 2.874-8.382 6.405 0 2.419 1.853 4.676 4.721 5.751.268.55.48.308.585.574.106.267.093 1.366-.032.822l-.05.102c-.055.118.42.234-.177.348a7.224 7.224 0 0 1-.297.454 5.597 5.597 0 0 0 2.168-1.367c.836-.212.497-.315.787-.306.224.014.449.028.677.028 4.621 0 8.381-2.874 8.381-6.406 0-3.531-3.76-6.405-8.381-6.405zm13.19 10.475c-.24-1.528-1.275-2.784-2.821-3.536-.319 4.095-4.248 7.405-9.237 7.845 1.282 1.752 3.814 2.655 6.429 2.179.751-.03.345-.072.513-.115.304-.078.878-.008.874.187.38.301 1.644.528 1.291.676 0-.002-.003-.004-.004-.006a3.24 3.24 0 0 1-.199-.286 1.118 1.118 0 0 1-.176-.817c.057-.268.197-.542.43-.687 2.076-1.292 3.214-3.427 2.9-5.44zm-9.119-2.613c-.728 0-.589-.016-.589-1.321 0-.729-.139-1.195.589-1.195s1.319.466 1.319 1.195c0 1.305-.591 1.321-1.319 1.321zm-4.044 0c-.728 0-.975-.016-.975-1.321 0-.729.247-1.195.975-1.195 1.495 0 1.319.466 1.319 1.195 0 1.305.176 1.321-1.319 1.321zm-4.042 0c-.729 0-1.318-.016-1.318-1.321 0-.729.589-1.195 1.318-1.195 1.097 0 1.319.466 1.319 1.195 0 1.305-.222 1.321-1.319 1.321z"/>
</svg>
