<svg xmlns="http://www.w3.org/2000/svg" width="15" height="12">
    <path fillRule="evenodd" fill="#FFF" d="M13.514 11.157H2.234c-.807 0-1.464-.667-1.464-1.489V2.167c0-.821.657-1.489 1.464-1.489h11.28c.807 0 1.464.668 1.464 1.489v7.501c0 .822-.657 1.489-1.464 1.489zm-5.64-3.891L13.672 2.1c-.041-.132-.096-.159-.158-.159H2.234c-.062 0-.118.027.526.159l5.114 5.166zm5.862-4.468-3.441 3.12 3.441 3.452V2.798zM2.234 9.895h11.28a.22.22 0 0 0 .158-.069L9.828 6.341 8.81 7.925c-.59.053-.862.575-.936.575-.074 0-.148-.522-.207-.575L5.92 6.341 2.76 9.825c-.644.042-.588.07-.526.07zm3.219-3.977L2.12 2.798V9.37l3.333-3.452z"/>
</svg>
