<svg xmlns="http://www.w3.org/2000/svg" width="486.5" height="567.5">
    <path fillRule="evenodd" stroke="#B5E4F4" stroke-width="3" fill="#EDFAFE" d="M4.24 224.491c17.214-51.256 63.887-92.203 117.383-100.391 24.483-3.878 50.785-1.827 72.552-13.659 24.79-13.473 37.364-40.881 56.645-62.652C288.648 3.554 358.432-9.704 410.532 17.302c52.099 27.008 81.738 91.679 67.586 148.696-8.153 33.424-29.327 63.878-29.831 98.279-.399 27.159 12.198 52.526 21.502 78.044 10.161 25.518 15.181 55.106 2.175 78.951-15.713 29.508-52.27 38.002-84.204 41.54-33.303 3.538-69.02 5.465-93.351 27.478-15.266 13.81-23.569 33.574-36.213 49.82-12.642 16.246-36.403 27.797-55.716 20.672L4.24 224.491z"/>
</svg>
