<svg xmlns="http://www.w3.org/2000/svg" width="724.5" height="839.5">
    <path fillRule="evenodd" stroke="#81D6E6" stroke-width="3" fill="#EDFAFE" d="M719.141 516.988c-27.889 75.899-98.181 135.333-179.19 145.735-36.679 4.76-75.031.735-108.778 17.605-37.491 19.212-57.28 60.429-85.732 91.508-59.177 64.639-163.814 81.884-240.583 39.648C28.89 769.248-13.415 671.603 9.428 586.975c13.392-49.611 46.107-94.311 48.119-145.66 1.587-40.54-16.283-78.881-29.238-117.326-12.955-38.445-20.64-82.841-.356-117.809 24.504-42.6 79.4-54.992 128.211-58.2 48.812-4.08 102.19-6.541 139.308-38.52 23.289-20.063 36.406-49.27 55.869-73.066s55.35-40.174 83.912-28.829l283.888 509.423z"/>
</svg>
