<svg xmlns="http://www.w3.org/2000/svg" width="766.5" height="725.5">
    <path fillRule="evenodd" stroke="#B5E4F4" stroke-width="3" fill="#EDFAFE" d="M203.596 720.625C136.609 677.902 94.49 597.61 101.304 517.868c3.121-36.241 15.194-73.045 5.905-108.216-10.578-40.055-45.985-67.717-69.845-100.892C-12.26 237.651-6.878 133.49 49.74 68.584c56.62-64.905 159.02-84.299 235.443-44.595 44.799 23.278 81.027 64.811 129.692 76.797 38.569 10.032 79.106.903 118.712-3.478 39.608-4.382 83.821-2.453 113.28 24.408 35.589 32.449 35.976 87.798 29.669 135.558-6.305 48.066-15.986 99.379 6.922 142.026 14.373 26.316 39.651 45.048 58.406 69.12 18.755 23.316 26.951 61.236 10.077 86.3L203.596 720.625z"/>
</svg>
