<svg xmlns="http://www.w3.org/2000/svg" width="26" height="23">
    <path fillRule="evenodd" fill="#077997" d="M24.706 14.888c-.976 1.562-2.404 2.46-3.915 2.46-.281 0-.555-.051-.825-.116.583 1.568 1.034 1.665 1.287 2.328.367.85.167 1.81-.067 1.845-.797 1.26-2.944 1.334-6.843 1.467l-1.223.046-.144.001-.037-.001-1.332-.046c-3.897-.133-6.043-.207-6.841-1.467-.235-.045-.434-.996-.053-1.88.248-.649.692-.815 1.268-2.292a3.54 3.54 0 0 1-.82.115c-1.512 0-2.938-.898-3.916-2.462C.312 13.399.17 11.61.383 10.218c.251-.874.768-1.522 1.496-1.873.395-.194.843.165 1.321.165.796 0 1.652-.168 2.449.323-.252-.551-.456-1.16-.039-1.713-.922-1.972-.34-3.773.362-4.925C6.636 1.381 7.565.933 8.584.933c1.872.033 3.555 1.248 4.391 2.951.833-1.703 2.503-2.918 4.328-2.95h.002c1.082 0 2.009.447 2.675 1.261.943 1.152 1.285 2.953.912 4.905a9.324 9.324 0 0 1-.589 1.733c.797-.492 1.652-.323 2.448-.323.48 0 .926-.359 2.039-.161.01.347.528.995.78 1.868.401 1.392.069 3.181-.864 4.671zm-13.034 6.088 1.304.244 1.303-.244c2.115-.072 5.521-.161 5.271-.559a1.042 1.042 0 0 0-.051-.143c-.929-2.431-3.529-6.427-5.889-5.774-.01-.4-.663-.4-.718 0-1.972-.623-5.51 3.344-6.425 5.737a1.69 1.69 0 0 0-.065.181c.545.397 3.157.486 5.27.558zM6.279 12.67C5.544 10.878 4.193 9.947 3.2 9.947c-.08 0-.353.035-.492.553-.24-.335-.406-.103-.507.244-.247.861.012 2.121.649 3.135.848 1.359 2.94 1.926 3.48 1.323.652-.605 1.47-1.838-.051-2.532zm5.348-6.709c-.143-1.67-1.522-3.104-3.013-3.131-.483 0-.87.38-1.178.567-.578.707-.778 1.949-.519 3.242.414 2.069 1.522 3.186 2.355 3.186.11 0 .218-.019.33-.056 1.237-.424 2.167-2.167 2.025-3.808zm1.349 2.866c-.578 1.287-1.56 2.325-2.763 2.737a2.916 2.916 0 0 1-.941.157H9.27c-.407 0-.801-.104-.39-.267-.309.92-.133 1.849-.219 2.702 1.839-1.246 2.933-1.956 4.315-2.046 1.389.22 2.93.811 4.315 2.053-.088-.855.088-1.787.572-2.709-.38.163.017.267-1.182.267-.319 0-.221-.052-.94-.156-1.204-.412-2.186-1.451-2.765-2.738zm5.539-5.43c-.306-.187-.693-.567-1.149-.567-1.518.027-2.899 1.461-3.04 3.13-.142 1.642.785 3.385 2.026 3.81.108.036.217.055.329.055.832 0 1.94-1.117 2.669-3.186-.057-1.293.59-2.535-.835-3.242zm5.234 7.346c-.098-.346-.267-.578-.499-.203-.145-.558-.312-.593-.499-.593-.991 0-2.343.931-3.077 2.723-.803.694-.703 1.927.251 2.536.939.588 2.33.031 3.176-1.326.637-1.015.898-2.276.648-3.137z"/>
</svg>
